<?xml version="1.0" encoding="UTF-8" standalone="no"?>
<!DOCTYPE svg PUBLIC "-//W3C//DTD SVG 1.1//EN"
 "http://www.w3.org/Graphics/SVG/1.1/DTD/svg11.dtd">
<!-- Generated by graphviz version 2.28.0 (20140111.2315)
 -->
<!-- Title: %3 Pages: 1 -->
<svg width="1634pt" height="260pt"
 viewBox="0.00 0.00 1634.00 260.00" xmlns="http://www.w3.org/2000/svg" xmlns:xlink="http://www.w3.org/1999/xlink">
<g id="graph0" class="graph" transform="scale(1 1) rotate(0) translate(4 256)">
<title>%3</title>
<polygon fill="white" stroke="none" points="-4,4 -4,-256 1630,-256 1630,4 -4,4"/>
<!-- a -->
<g id="node1" class="node"><title>a</title>
<ellipse fill="#014386" stroke="#014386" cx="610" cy="-99" rx="105.399" ry="18"/>
<text text-anchor="middle" x="610" y="-94.8" font-family="Lato" font-size="14.00" fill="white">HTCondor submit script</text>
</g>
<!-- b -->
<g id="node2" class="node"><title>b</title>
<ellipse fill="#014386" stroke="#014386" cx="811" cy="-180" rx="59.0843" ry="18"/>
<text text-anchor="middle" x="811" y="-175.8" font-family="Lato" font-size="14.00" fill="white">R script (.R)</text>
</g>
<!-- a&#45;&gt;b -->
<g id="edge3" class="edge"><title>a&#45;&gt;b</title>
<path fill="none" stroke="black" d="M651.751,-115.587C684.766,-129.025 731.225,-147.936 765.264,-161.791"/>
<polygon fill="black" stroke="black" points="764.375,-165.208 774.957,-165.736 767.014,-158.724 764.375,-165.208"/>
</g>
<!-- c -->
<g id="node3" class="node"><title>c</title>
<polygon fill="#014386" stroke="#014386" points="864.853,-144 757.147,-144 757.147,-108 864.853,-108 864.853,-144"/>
<text text-anchor="middle" x="811" y="-121.8" font-family="Lato" font-size="14.00" fill="white">HTCondor error</text>
</g>
<!-- a&#45;&gt;c -->
<g id="edge4" class="edge"><title>a&#45;&gt;c</title>
<path fill="none" stroke="black" d="M693.09,-110.138C711,-112.568 729.686,-115.103 746.73,-117.416"/>
<polygon fill="black" stroke="black" points="746.729,-120.947 757.108,-118.824 747.67,-114.011 746.729,-120.947"/>
</g>
<!-- d -->
<g id="node4" class="node"><title>d</title>
<polygon fill="#014386" stroke="#014386" points="860.047,-90 761.953,-90 761.953,-54 860.047,-54 860.047,-90"/>
<text text-anchor="middle" x="811" y="-67.8" font-family="Lato" font-size="14.00" fill="white">HTCondor log</text>
</g>
<!-- a&#45;&gt;d -->
<g id="edge5" class="edge"><title>a&#45;&gt;d</title>
<path fill="none" stroke="black" d="M693.09,-87.8622C712.783,-85.1903 733.415,-82.3909 751.77,-79.9005"/>
<polygon fill="black" stroke="black" points="752.274,-83.3643 761.713,-78.5516 751.333,-76.4279 752.274,-83.3643"/>
</g>
<!-- e -->
<g id="node5" class="node"><title>e</title>
<polygon fill="#014386" stroke="#014386" points="868.938,-36 753.062,-36 753.062,-0 868.938,-0 868.938,-36"/>
<text text-anchor="middle" x="811" y="-13.8" font-family="Lato" font-size="14.00" fill="white">HTCondor output</text>
</g>
<!-- a&#45;&gt;e -->
<g id="edge6" class="edge"><title>a&#45;&gt;e</title>
<path fill="none" stroke="black" d="M651.751,-82.413C681.868,-70.1543 723.173,-53.3418 756.031,-39.9671"/>
<polygon fill="black" stroke="black" points="757.554,-43.1264 765.496,-36.1146 754.915,-36.6429 757.554,-43.1264"/>
</g>
<!-- f -->
<g id="node6" class="node"><title>f</title>
<polygon fill="#014386" stroke="#014386" points="1073.54,-252 954.46,-252 954.46,-216 1073.54,-216 1073.54,-252"/>
<text text-anchor="middle" x="1014" y="-229.8" font-family="Lato" font-size="14.00" fill="white">sink() output (.txt)</text>
</g>
<!-- b&#45;&gt;f -->
<g id="edge7" class="edge"><title>b&#45;&gt;f</title>
<path fill="none" stroke="black" d="M854.032,-192.389C870.24,-197.083 888.951,-202.402 906,-207 918.456,-210.359 931.762,-213.82 944.609,-217.095"/>
<polygon fill="black" stroke="black" points="943.769,-220.493 954.322,-219.559 945.49,-213.708 943.769,-220.493"/>
</g>
<!-- g -->
<g id="node7" class="node"><title>g</title>
<polygon fill="#014386" stroke="#014386" points="1121.86,-198 906.142,-198 906.142,-162 1121.86,-162 1121.86,-198"/>
<text text-anchor="middle" x="1014" y="-175.8" font-family="Lato" font-size="14.00" fill="white">plot() or ggplot() output (.png, .jpg)</text>
</g>
<!-- b&#45;&gt;g -->
<g id="edge8" class="edge"><title>b&#45;&gt;g</title>
<path fill="none" stroke="black" d="M870.138,-180C878.393,-180 887.115,-180 896.015,-180"/>
<polygon fill="black" stroke="black" points="896.123,-183.5 906.123,-180 896.123,-176.5 896.123,-183.5"/>
</g>
<!-- h -->
<g id="node8" class="node"><title>h</title>
<polygon fill="#014386" stroke="#014386" points="1095.72,-144 932.282,-144 932.282,-108 1095.72,-108 1095.72,-144"/>
<text text-anchor="middle" x="1014" y="-121.8" font-family="Lato" font-size="14.00" fill="white">data objects (.RData, .csv)</text>
</g>
<!-- b&#45;&gt;h -->
<g id="edge9" class="edge"><title>b&#45;&gt;h</title>
<path fill="none" stroke="black" d="M854.032,-167.611C870.24,-162.917 888.951,-157.598 906,-153 913.825,-150.89 921.985,-148.739 930.156,-146.62"/>
<polygon fill="black" stroke="black" points="931.297,-149.941 940.107,-144.056 929.55,-143.162 931.297,-149.941"/>
</g>
<!-- i -->
<g id="node9" class="node"><title>i</title>
<ellipse fill="#df7a1c" stroke="#df7a1c" cx="1274" cy="-180" rx="116.336" ry="18"/>
<text text-anchor="middle" x="1274" y="-175.8" font-family="Lato" font-size="14.00" fill="white">R Markdown script (.Rmd)</text>
</g>
<!-- f&#45;&gt;i -->
<g id="edge10" class="edge"><title>f&#45;&gt;i</title>
<path fill="none" stroke="black" d="M1073.54,-221.747C1109.16,-214.291 1155.12,-204.672 1193.95,-196.546"/>
<polygon fill="black" stroke="black" points="1195.1,-199.881 1204.17,-194.406 1193.67,-193.029 1195.1,-199.881"/>
</g>
<!-- g&#45;&gt;i -->
<g id="edge11" class="edge"><title>g&#45;&gt;i</title>
<path fill="none" stroke="black" d="M1122.17,-180C1130.63,-180 1139.22,-180 1147.78,-180"/>
<polygon fill="black" stroke="black" points="1147.82,-183.5 1157.82,-180 1147.82,-176.5 1147.82,-183.5"/>
</g>
<!-- h&#45;&gt;i -->
<g id="edge12" class="edge"><title>h&#45;&gt;i</title>
<path fill="none" stroke="black" d="M1095.92,-142.938C1127.26,-149.497 1163.02,-156.98 1194.15,-163.497"/>
<polygon fill="black" stroke="black" points="1193.58,-166.953 1204.09,-165.576 1195.02,-160.102 1193.58,-166.953"/>
</g>
<!-- j -->
<g id="node10" class="node"><title>j</title>
<polygon fill="#df7a1c" stroke="#df7a1c" points="1625.24,-198 1426.76,-198 1426.76,-162 1625.24,-162 1625.24,-198"/>
<text text-anchor="middle" x="1526" y="-175.8" font-family="Lato" font-size="14.00" fill="white">Rendered document (.html, .md)</text>
</g>
<!-- i&#45;&gt;j -->
<g id="edge13" class="edge"><title>i&#45;&gt;j</title>
<path fill="none" stroke="black" d="M1390.49,-180C1399.13,-180 1407.84,-180 1416.43,-180"/>
<polygon fill="black" stroke="black" points="1416.47,-183.5 1426.47,-180 1416.47,-176.5 1416.47,-183.5"/>
</g>
<!-- k -->
<g id="node11" class="node"><title>k</title>
<ellipse fill="#df7a1c" stroke="#df7a1c" cx="116" cy="-99" rx="116.336" ry="18"/>
<text text-anchor="middle" x="116" y="-94.8" font-family="Lato" font-size="14.00" fill="white">R Markdown script (.Rmd)</text>
</g>
<!-- l -->
<g id="node12" class="node"><title>l</title>
<polygon fill="#df7a1c" stroke="#df7a1c" points="467.235,-117 268.765,-117 268.765,-81 467.235,-81 467.235,-117"/>
<text text-anchor="middle" x="368" y="-94.8" font-family="Lato" font-size="14.00" fill="white">Rendered document (.html, .md)</text>
</g>
<!-- k&#45;&gt;l -->
<g id="edge1" class="edge"><title>k&#45;&gt;l</title>
<path fill="none" stroke="black" d="M232.487,-99C241.131,-99 249.835,-99 258.435,-99"/>
<polygon fill="black" stroke="black" points="258.471,-102.5 268.471,-99 258.471,-95.5001 258.471,-102.5"/>
</g>
<!-- l&#45;&gt;a -->
<g id="edge2" class="edge"><title>l&#45;&gt;a</title>
<path fill="none" stroke="black" d="M467.31,-99C476.151,-99 485.154,-99 494.12,-99"/>
<polygon fill="black" stroke="black" points="494.215,-102.5 504.215,-99 494.215,-95.5001 494.215,-102.5"/>
</g>
</g>
</svg>
