<?xml version="1.0" encoding="UTF-8" standalone="no"?>
<!DOCTYPE svg PUBLIC "-//W3C//DTD SVG 1.1//EN"
 "http://www.w3.org/Graphics/SVG/1.1/DTD/svg11.dtd">
<!-- Generated by graphviz version 2.28.0 (20140111.2315)
 -->
<!-- Title: %3 Pages: 1 -->
<svg width="626pt" height="260pt"
 viewBox="0.00 0.00 626.00 260.00" xmlns="http://www.w3.org/2000/svg" xmlns:xlink="http://www.w3.org/1999/xlink">
<g id="graph0" class="graph" transform="scale(1 1) rotate(0) translate(4 256)">
<title>%3</title>
<polygon fill="white" stroke="none" points="-4,4 -4,-256 622,-256 622,4 -4,4"/>
<!-- a -->
<g id="node1" class="node"><title>a</title>
<ellipse fill="#014386" stroke="#014386" cx="106" cy="-99" rx="105.399" ry="18"/>
<text text-anchor="middle" x="106" y="-94.8" font-family="Lato" font-size="14.00" fill="white">HTCondor submit script</text>
</g>
<!-- b -->
<g id="node2" class="node"><title>b</title>
<ellipse fill="#014386" stroke="#014386" cx="307" cy="-180" rx="59.0843" ry="18"/>
<text text-anchor="middle" x="307" y="-175.8" font-family="Lato" font-size="14.00" fill="white">R script (.R)</text>
</g>
<!-- a&#45;&gt;b -->
<g id="edge1" class="edge"><title>a&#45;&gt;b</title>
<path fill="none" stroke="black" d="M147.751,-115.587C180.766,-129.025 227.225,-147.936 261.264,-161.791"/>
<polygon fill="black" stroke="black" points="260.375,-165.208 270.957,-165.736 263.014,-158.724 260.375,-165.208"/>
</g>
<!-- c -->
<g id="node3" class="node"><title>c</title>
<polygon fill="#014386" stroke="#014386" points="360.853,-144 253.147,-144 253.147,-108 360.853,-108 360.853,-144"/>
<text text-anchor="middle" x="307" y="-121.8" font-family="Lato" font-size="14.00" fill="white">HTCondor error</text>
</g>
<!-- a&#45;&gt;c -->
<g id="edge2" class="edge"><title>a&#45;&gt;c</title>
<path fill="none" stroke="black" d="M189.09,-110.138C207,-112.568 225.686,-115.103 242.73,-117.416"/>
<polygon fill="black" stroke="black" points="242.729,-120.947 253.108,-118.824 243.67,-114.011 242.729,-120.947"/>
</g>
<!-- d -->
<g id="node4" class="node"><title>d</title>
<polygon fill="#014386" stroke="#014386" points="356.047,-90 257.953,-90 257.953,-54 356.047,-54 356.047,-90"/>
<text text-anchor="middle" x="307" y="-67.8" font-family="Lato" font-size="14.00" fill="white">HTCondor log</text>
</g>
<!-- a&#45;&gt;d -->
<g id="edge3" class="edge"><title>a&#45;&gt;d</title>
<path fill="none" stroke="black" d="M189.09,-87.8622C208.783,-85.1903 229.415,-82.3909 247.77,-79.9005"/>
<polygon fill="black" stroke="black" points="248.274,-83.3643 257.713,-78.5516 247.333,-76.4279 248.274,-83.3643"/>
</g>
<!-- e -->
<g id="node5" class="node"><title>e</title>
<polygon fill="#014386" stroke="#014386" points="364.938,-36 249.062,-36 249.062,-0 364.938,-0 364.938,-36"/>
<text text-anchor="middle" x="307" y="-13.8" font-family="Lato" font-size="14.00" fill="white">HTCondor output</text>
</g>
<!-- a&#45;&gt;e -->
<g id="edge4" class="edge"><title>a&#45;&gt;e</title>
<path fill="none" stroke="black" d="M147.751,-82.413C177.868,-70.1543 219.173,-53.3418 252.031,-39.9671"/>
<polygon fill="black" stroke="black" points="253.554,-43.1264 261.496,-36.1146 250.915,-36.6429 253.554,-43.1264"/>
</g>
<!-- f -->
<g id="node6" class="node"><title>f</title>
<polygon fill="#014386" stroke="#014386" points="569.54,-252 450.46,-252 450.46,-216 569.54,-216 569.54,-252"/>
<text text-anchor="middle" x="510" y="-229.8" font-family="Lato" font-size="14.00" fill="white">sink() output (.txt)</text>
</g>
<!-- b&#45;&gt;f -->
<g id="edge5" class="edge"><title>b&#45;&gt;f</title>
<path fill="none" stroke="black" d="M350.032,-192.389C366.24,-197.083 384.951,-202.402 402,-207 414.456,-210.359 427.762,-213.82 440.609,-217.095"/>
<polygon fill="black" stroke="black" points="439.769,-220.493 450.322,-219.559 441.49,-213.708 439.769,-220.493"/>
</g>
<!-- g -->
<g id="node7" class="node"><title>g</title>
<polygon fill="#014386" stroke="#014386" points="617.858,-198 402.142,-198 402.142,-162 617.858,-162 617.858,-198"/>
<text text-anchor="middle" x="510" y="-175.8" font-family="Lato" font-size="14.00" fill="white">plot() or ggplot() output (.png, .jpg)</text>
</g>
<!-- b&#45;&gt;g -->
<g id="edge6" class="edge"><title>b&#45;&gt;g</title>
<path fill="none" stroke="black" d="M366.138,-180C374.393,-180 383.115,-180 392.015,-180"/>
<polygon fill="black" stroke="black" points="392.123,-183.5 402.123,-180 392.123,-176.5 392.123,-183.5"/>
</g>
<!-- h -->
<g id="node8" class="node"><title>h</title>
<polygon fill="#014386" stroke="#014386" points="591.718,-144 428.282,-144 428.282,-108 591.718,-108 591.718,-144"/>
<text text-anchor="middle" x="510" y="-121.8" font-family="Lato" font-size="14.00" fill="white">data objects (.RData, .csv)</text>
</g>
<!-- b&#45;&gt;h -->
<g id="edge7" class="edge"><title>b&#45;&gt;h</title>
<path fill="none" stroke="black" d="M350.032,-167.611C366.24,-162.917 384.951,-157.598 402,-153 409.825,-150.89 417.985,-148.739 426.156,-146.62"/>
<polygon fill="black" stroke="black" points="427.297,-149.941 436.107,-144.056 425.55,-143.162 427.297,-149.941"/>
</g>
</g>
</svg>
