<?xml version="1.0" encoding="UTF-8" standalone="no"?>
<!DOCTYPE svg PUBLIC "-//W3C//DTD SVG 1.1//EN"
 "http://www.w3.org/Graphics/SVG/1.1/DTD/svg11.dtd">
<!-- Generated by graphviz version 2.28.0 (20140111.2315)
 -->
<!-- Title: %3 Pages: 1 -->
<svg width="1268pt" height="260pt"
 viewBox="0.00 0.00 1268.00 260.00" xmlns="http://www.w3.org/2000/svg" xmlns:xlink="http://www.w3.org/1999/xlink">
<g id="graph0" class="graph" transform="scale(1 1) rotate(0) translate(4 256)">
<title>%3</title>
<polygon fill="white" stroke="none" points="-4,4 -4,-256 1264,-256 1264,4 -4,4"/>
<!-- a -->
<g id="node1" class="node"><title>a</title>
<ellipse fill="#014386" stroke="#014386" cx="106" cy="-99" rx="105.399" ry="18"/>
<text text-anchor="middle" x="106" y="-94.8" font-family="Lato" font-size="14.00" fill="white">HTCondor submit script</text>
</g>
<!-- b -->
<g id="node2" class="node"><title>b</title>
<ellipse fill="#014386" stroke="#014386" cx="328" cy="-180" rx="41.1883" ry="18"/>
<text text-anchor="middle" x="328" y="-175.8" font-family="Lato" font-size="14.00" fill="white">R script</text>
</g>
<!-- a&#45;&gt;b -->
<g id="edge1" class="edge"><title>a&#45;&gt;b</title>
<path fill="none" stroke="black" d="M148.805,-115.469C176.783,-126.377 214.482,-140.858 248,-153 259.924,-157.319 272.926,-161.84 284.876,-165.921"/>
<polygon fill="black" stroke="black" points="284.026,-169.328 294.62,-169.23 286.277,-162.7 284.026,-169.328"/>
</g>
<!-- c -->
<g id="node3" class="node"><title>c</title>
<ellipse fill="#014386" stroke="#014386" cx="328" cy="-126" rx="74.1" ry="18"/>
<text text-anchor="middle" x="328" y="-121.8" font-family="Lato" font-size="14.00" fill="white">HTCondor error</text>
</g>
<!-- a&#45;&gt;c -->
<g id="edge2" class="edge"><title>a&#45;&gt;c</title>
<path fill="none" stroke="black" d="M192.058,-109.439C211.634,-111.841 232.323,-114.381 251.463,-116.73"/>
<polygon fill="black" stroke="black" points="251.266,-120.231 261.617,-117.976 252.118,-113.284 251.266,-120.231"/>
</g>
<!-- d -->
<g id="node4" class="node"><title>d</title>
<ellipse fill="#014386" stroke="#014386" cx="328" cy="-72" rx="67.7623" ry="18"/>
<text text-anchor="middle" x="328" y="-67.8" font-family="Lato" font-size="14.00" fill="white">HTCondor log</text>
</g>
<!-- a&#45;&gt;d -->
<g id="edge3" class="edge"><title>a&#45;&gt;d</title>
<path fill="none" stroke="black" d="M192.058,-88.5611C213.263,-85.9587 235.773,-83.1961 256.206,-80.6883"/>
<polygon fill="black" stroke="black" points="256.87,-84.1333 266.369,-79.4411 256.017,-77.1854 256.87,-84.1333"/>
</g>
<!-- e -->
<g id="node5" class="node"><title>e</title>
<ellipse fill="#014386" stroke="#014386" cx="328" cy="-18" rx="79.9433" ry="18"/>
<text text-anchor="middle" x="328" y="-13.8" font-family="Lato" font-size="14.00" fill="white">HTCondor output</text>
</g>
<!-- a&#45;&gt;e -->
<g id="edge4" class="edge"><title>a&#45;&gt;e</title>
<path fill="none" stroke="black" d="M148.805,-82.5315C176.783,-71.623 214.482,-57.1417 248,-45 256.032,-42.0906 264.553,-39.0897 272.912,-36.1937"/>
<polygon fill="black" stroke="black" points="274.295,-39.419 282.611,-32.854 272.016,-32.8004 274.295,-39.419"/>
</g>
<!-- f -->
<g id="node6" class="node"><title>f</title>
<ellipse fill="#014386" stroke="#014386" cx="593" cy="-234" rx="82.2234" ry="18"/>
<text text-anchor="middle" x="593" y="-229.8" font-family="Lato" font-size="14.00" fill="white">sink() output (.txt)</text>
</g>
<!-- b&#45;&gt;f -->
<g id="edge5" class="edge"><title>b&#45;&gt;f</title>
<path fill="none" stroke="black" d="M364.385,-188.792C387.076,-194.31 417.198,-201.413 444,-207 467.939,-211.991 494.163,-216.942 517.799,-221.216"/>
<polygon fill="black" stroke="black" points="517.295,-224.681 527.757,-223.004 518.533,-217.791 517.295,-224.681"/>
</g>
<!-- g -->
<g id="node7" class="node"><title>g</title>
<ellipse fill="#014386" stroke="#014386" cx="593" cy="-180" rx="148.79" ry="18"/>
<text text-anchor="middle" x="593" y="-175.8" font-family="Lato" font-size="14.00" fill="white">plot() or ggplot() output (.png, .jpg)</text>
</g>
<!-- b&#45;&gt;g -->
<g id="edge6" class="edge"><title>b&#45;&gt;g</title>
<path fill="none" stroke="black" d="M369.517,-180C387.547,-180 410.051,-180 433.767,-180"/>
<polygon fill="black" stroke="black" points="433.995,-183.5 443.995,-180 433.995,-176.5 433.995,-183.5"/>
</g>
<!-- h -->
<g id="node8" class="node"><title>h</title>
<ellipse fill="#014386" stroke="#014386" cx="593" cy="-126" rx="112.86" ry="18"/>
<text text-anchor="middle" x="593" y="-121.8" font-family="Lato" font-size="14.00" fill="white">data objects (.RData, .csv)</text>
</g>
<!-- b&#45;&gt;h -->
<g id="edge7" class="edge"><title>b&#45;&gt;h</title>
<path fill="none" stroke="black" d="M364.385,-171.208C387.076,-165.69 417.198,-158.587 444,-153 463.996,-148.832 485.586,-144.69 505.93,-140.948"/>
<polygon fill="black" stroke="black" points="506.597,-144.385 515.805,-139.145 505.339,-137.499 506.597,-144.385"/>
</g>
<!-- i -->
<g id="node9" class="node"><title>i</title>
<ellipse fill="#df7a1c" stroke="#df7a1c" cx="864" cy="-180" rx="86.258" ry="18"/>
<text text-anchor="middle" x="864" y="-175.8" font-family="Lato" font-size="14.00" fill="white">R Markdown script</text>
</g>
<!-- f&#45;&gt;i -->
<g id="edge8" class="edge"><title>f&#45;&gt;i</title>
<path fill="none" stroke="black" d="M657.847,-222.915C683.978,-218.232 714.482,-212.578 742,-207 759.369,-203.479 778.083,-199.43 795.479,-195.557"/>
<polygon fill="black" stroke="black" points="796.556,-198.902 805.55,-193.302 795.027,-192.071 796.556,-198.902"/>
</g>
<!-- g&#45;&gt;i -->
<g id="edge9" class="edge"><title>g&#45;&gt;i</title>
<path fill="none" stroke="black" d="M742.27,-180C750.748,-180 759.153,-180 767.347,-180"/>
<polygon fill="black" stroke="black" points="767.603,-183.5 777.603,-180 767.603,-176.5 767.603,-183.5"/>
</g>
<!-- h&#45;&gt;i -->
<g id="edge10" class="edge"><title>h&#45;&gt;i</title>
<path fill="none" stroke="black" d="M669.781,-139.237C692.992,-143.449 718.578,-148.252 742,-153 759.369,-156.521 778.083,-160.57 795.479,-164.443"/>
<polygon fill="black" stroke="black" points="795.027,-167.929 805.55,-166.698 796.556,-161.098 795.027,-167.929"/>
</g>
<!-- j -->
<g id="node10" class="node"><title>j</title>
<ellipse fill="#df7a1c" stroke="#df7a1c" cx="1123" cy="-180" rx="137.168" ry="18"/>
<text text-anchor="middle" x="1123" y="-175.8" font-family="Lato" font-size="14.00" fill="white">Rendered document (.html, .md)</text>
</g>
<!-- i&#45;&gt;j -->
<g id="edge11" class="edge"><title>i&#45;&gt;j</title>
<path fill="none" stroke="black" d="M950.22,-180C958.412,-180 966.869,-180 975.435,-180"/>
<polygon fill="black" stroke="black" points="975.533,-183.5 985.533,-180 975.533,-176.5 975.533,-183.5"/>
</g>
</g>
</svg>
